<?xml version="1.0" standalone="no"?><!DOCTYPE svg PUBLIC "-//W3C//DTD SVG 1.1//EN" "http://www.w3.org/Graphics/SVG/1.1/DTD/svg11.dtd">
<svg class="icon" height="200" p-id="6880" t="1694250603997" version="1.1" viewBox="0 0 1024 1024"
    width="200" xmlns="http://www.w3.org/2000/svg"><path d="M512 590.75c-142.5 0-258.75-116.25-258.75-258.75s116.25-262.5 258.75-262.5 258.75 116.25 258.75 258.75-116.25 262.5-258.75 262.5zM512 144.5c-101.25 0-183.75 82.5-183.75 183.75s82.5 183.75 183.75 183.75 183.75-82.5 183.75-183.75-82.5-183.75-183.75-183.75z" p-id="6881"></path><path d="M170.75 950.75c-18.75 0-37.5-15-37.5-37.5 0-7.5 0-11.25 0-15 0-210 172.5-382.5 382.5-382.5 22.5 0 37.5 15 37.5 37.5s-15 37.5-37.5 37.5c-168.75 0-307.5 138.75-307.5 307.5v11.25c0 22.5-18.75 41.25-37.5 41.25v0z" p-id="6882"></path><path d="M853.25 947v0c-22.5 0-37.5-15-37.5-37.5v-11.25c0-168.75-138.75-307.5-307.5-307.5-22.5 0-37.5-15-37.5-37.5s15-37.5 37.5-37.5c210 0 382.5 172.5 382.5 382.5 0 3.75 0 7.5 0 11.25 0 22.5-15 37.5-37.5 37.5z" p-id="6883"></path></svg>